<?xml version="1.0" encoding="utf-8"?>
<!-- Generator: Adobe Illustrator 19.2.1, SVG Export Plug-In . SVG Version: 6.00 Build 0)  -->
<svg version="1.1" id="Layer_1" xmlns="http://www.w3.org/2000/svg" xmlns:xlink="http://www.w3.org/1999/xlink" x="0px" y="0px"
	 width="329.4px" height="210.6px" viewBox="0 0 329.4 210.6" style="enable-background:new 0 0 329.4 210.6;" xml:space="preserve"
	>
<style type="text/css">
	.st0{fill:#333333;}
</style>
<g>
	<g>
		<path class="st0" d="M57.2,115.2L57.2,115.2c-0.1,0-0.1,0-0.2,0c-1.5-0.1-3.1-0.2-4.7-0.2c-2.1-0.7-2.1-2-2.1-2
			c12.1-54.6,111.3-90.5,111.3-90.5L154.2,0c0,0-41.3,12.1-93.1,46.6C-4.8,90.3,0.1,157,0.1,157l0,0c1,27.4,18.3,53.6,51.1,53.6
			c28.3,0,51.2-22.9,51.2-51.2C102.4,133.6,83.1,117.3,57.2,115.2"/>
		<path class="st0" d="M215,115.2L215,115.2c-0.1,0-0.1,0-0.2,0c-1.5-0.1-3.1-0.2-4.7-0.2c-2.1-0.7-2.1-2-2.1-2
			c12.1-54.6,121.3-90.5,121.3-90.5L322.2,0c0,0-47.9,11.5-100.3,45c-71.5,45.8-63.9,112-63.9,112l0,0c1,27.4,18.3,53.6,51.1,53.6
			c28.3,0,51.2-22.9,51.2-51.2C260.3,133.6,241,117.3,215,115.2"/>
	</g>
</g>
</svg>
